<?xml version="1.0" encoding="UTF-8" standalone="no"?>
<svg width="50px" height="50px" viewBox="0 0 50 50" version="1.1" xmlns="http://www.w3.org/2000/svg" xmlns:xlink="http://www.w3.org/1999/xlink">
    <!-- Generator: Sketch 3.8.1 (29687) - http://www.bohemiancoding.com/sketch -->
    <title>particle2</title>
    <desc>Created with Sketch.</desc>
    <defs></defs>
    <g id="Page-1" stroke="none" stroke-width="1" fill="none" fill-rule="evenodd">
        <g id="particle2">
            <g id="Group" transform="translate(2.000000, 2.000000)">
                <path d="M24.9503174,21.4219272 L24.7835549,21.8805238 L31.3702358,39.5318187 L31.6393333,40.2529588 L30.1970531,40.7911538 L29.9279556,40.0700137 L23.972614,24.1106113 L18.0138448,40.4972268 L17.7508011,41.220597 L16.3040606,40.6945095 L16.5671043,39.9711393 L23.1430098,21.8873992 L23.067974,21.6863146 L7.55343089,29.541792 L6.86672709,29.8894906 L6.17132973,28.5160831 L6.85803353,28.1683844 L21.8035381,20.6010282 L4.73345607,16.1479634 L3.9886695,15.9536712 L4.3772538,14.4640981 L5.12204037,14.6583902 L22.0979869,19.086898 L17.4098587,6.52343316 L17.1407612,5.80229308 L18.5830414,5.26409806 L18.8521389,5.98523814 L23.9084097,19.5352688 L24.0186223,19.4794648 L28.8824954,6.10381377 L29.1455392,5.38044354 L30.5922796,5.90653098 L30.3292359,6.6299012 L26.0263255,18.4629046 L37.7215307,12.5412724 L38.4082345,12.1935737 L39.1036318,13.5669813 L38.416928,13.91468 L26.1263396,20.1377726 L40.5287898,23.8949335 L41.2735764,24.0892257 L40.8849921,25.5787988 L40.1402055,25.3845067 L24.9503174,21.4219272 Z" id="Combined-Shape-Copy" fill="#909598" transform="translate(22.631123, 23.242348) rotate(-170.000000) translate(-22.631123, -23.242348) "></path>
                <path d="M13.8000563,3.78387097 C13.8321831,4.45260261 13.7706756,4.66799766 14.0226369,5.11935484 C14.2807301,5.58169646 14.6238363,6.31043935 15.3581208,6.45483871 C15.5615015,6.49483416 16.7015351,6.9 16.9161853,6.9 C17.4631748,6.9 18.3217497,6.70174922 18.6968307,6.45483871 C19.2919042,6.06311022 19.7340782,5.46172844 20.0323145,4.67419355 C20.179788,4.28476924 20.254895,3.89342305 20.254895,3.45 C20.254895,3.01835971 20.3897969,2.34328627 20.254895,2.00322581 C19.9712401,1.28818896 19.2055675,1.05518387 18.4742498,0.667741935 C18.0180684,0.42606334 17.4640652,0 16.9161853,0 C16.2247924,0 15.9142791,0.370109736 15.5807014,0.667741935 C15.2373325,0.974110232 14.6558749,0.993492968 14.4677982,1.55806452 C14.3512982,1.90777615 14.0226369,2.43801486 14.0226369,2.89354839 C14.0226369,2.99454279 13.795906,3.69748058 13.8000563,3.78387097 Z" id="Oval-3-Copy-2" fill="#567173"></path>
                <path d="M28.7500375,7.12258065 C28.7714554,7.56840174 28.7304504,7.71199844 28.8984246,8.01290323 C29.0704868,8.32113097 29.2992242,8.80695956 29.7887472,8.90322581 C29.9243343,8.92988944 30.6843568,9.2 30.8274569,9.2 C31.1921166,9.2 31.7644998,9.06783281 32.0145538,8.90322581 C32.4112694,8.64207348 32.7060521,8.2411523 32.9048764,7.71612903 C33.003192,7.45651283 33.0532633,7.19561536 33.0532633,6.9 C33.0532633,6.6122398 33.1431979,6.16219085 33.0532633,5.93548387 C32.8641601,5.45879264 32.3537116,5.30345592 31.8661666,5.04516129 C31.5620456,4.88404223 31.1927102,4.6 30.8274569,4.6 C30.3665283,4.6 30.1595194,4.84673982 29.9371343,5.04516129 C29.7082217,5.24940682 29.3205833,5.26232865 29.1951988,5.63870968 C29.1175321,5.87185077 28.8984246,6.22534324 28.8984246,6.52903226 C28.8984246,6.59636186 28.7472707,7.06498705 28.7500375,7.12258065 Z" id="Oval-3-Copy-3" fill="#567173"></path>
                <path d="M37.9500657,20.5145161 C37.9875469,21.294703 37.9157882,21.5459973 38.2097431,22.0725806 C38.5108518,22.6119792 38.9111423,23.4621792 39.7678076,23.6306452 C40.0050851,23.6773065 41.3351243,24.15 41.5855495,24.15 C42.223704,24.15 43.2253746,23.9187074 43.6629691,23.6306452 C44.3572215,23.1736286 44.8730912,22.4720165 45.2210336,21.5532258 C45.393086,21.0988975 45.4807108,20.6423269 45.4807108,20.125 C45.4807108,19.6214197 45.6380963,18.833834 45.4807108,18.4370968 C45.1497802,17.6028871 44.2564954,17.3310479 43.4032915,16.8790323 C42.8710798,16.5970739 42.2247428,16.1 41.5855495,16.1 C40.7789245,16.1 40.416659,16.5317947 40.027485,16.8790323 C39.6268879,17.2364619 38.9485208,17.2590751 38.7290979,17.9177419 C38.5931812,18.3257388 38.2097431,18.9443507 38.2097431,19.4758065 C38.2097431,19.5936333 37.9452236,20.4137273 37.9500657,20.5145161 Z" id="Oval-3-Copy-4" fill="#567173"></path>
                <path d="M39.1000469,35.3532258 C39.1268192,35.9105022 39.075563,36.089998 39.2855308,36.466129 C39.5006085,36.8514137 39.7865302,37.4586995 40.398434,37.5790323 C40.5679179,37.6123618 41.5179459,37.95 41.6968211,37.95 C42.1526457,37.95 42.8681247,37.784791 43.1806922,37.5790323 C43.6765868,37.2525919 44.0450651,36.7514404 44.2935954,36.0951613 C44.41649,35.770641 44.4790792,35.4445192 44.4790792,35.075 C44.4790792,34.7152998 44.5914974,34.1527386 44.4790792,33.8693548 C44.2427001,33.2734908 43.6046396,33.0793199 42.9952082,32.7564516 C42.615057,32.5550528 42.1533877,32.2 41.6968211,32.2 C41.1206604,32.2 40.8618993,32.5084248 40.5839178,32.7564516 C40.2977771,33.0117585 39.8132291,33.0279108 39.6564985,33.4983871 C39.5594152,33.7898135 39.2855308,34.231679 39.2855308,34.6112903 C39.2855308,34.6954523 39.0965883,35.2812338 39.1000469,35.3532258 Z" id="Oval-3-Copy-5" fill="#567173"></path>
                <path d="M23.0000375,42.7725806 C23.0214554,43.2184017 22.9804504,43.3619984 23.1484246,43.6629032 C23.3204868,43.971131 23.5492242,44.4569596 24.0387472,44.5532258 C24.1743343,44.5798894 24.9343568,44.85 25.0774569,44.85 C25.4421166,44.85 26.0144998,44.7178328 26.2645538,44.5532258 C26.6612694,44.2920735 26.9560521,43.8911523 27.1548764,43.366129 C27.253192,43.1065128 27.3032633,42.8456154 27.3032633,42.55 C27.3032633,42.2622398 27.3931979,41.8121908 27.3032633,41.5854839 C27.1141601,41.1087926 26.6037116,40.9534559 26.1161666,40.6951613 C25.8120456,40.5340422 25.4427102,40.25 25.0774569,40.25 C24.6165283,40.25 24.4095194,40.4967398 24.1871343,40.6951613 C23.9582217,40.8994068 23.5705833,40.9123286 23.4451988,41.2887097 C23.3675321,41.5218508 23.1484246,41.8753432 23.1484246,42.1790323 C23.1484246,42.2463619 22.9972707,42.7149871 23.0000375,42.7725806 Z" id="Oval-3-Copy-6" fill="#567173"></path>
                <path d="M8.05005962,41.957568 C8.08408572,42.665834 8.01894196,42.8939629 8.28579891,43.3720037 C8.55915022,43.8616783 8.92254029,44.6335034 9.70023466,44.7864395 C9.91563893,44.8287994 11.1230697,45.257918 11.3504097,45.257918 C11.9297364,45.257918 12.839069,45.047947 13.2363242,44.7864395 C13.8665776,44.3715526 14.3348923,43.7346179 14.65076,42.9005251 C14.8069518,42.4880786 14.8864991,42.0735966 14.8864991,41.603959 C14.8864991,41.1468008 15.0293762,40.431818 14.8864991,40.0716536 C14.5860749,39.3143448 13.7751368,39.0675648 13.0005847,38.6572179 C12.5174345,38.4012516 11.9306795,37.95 11.3504097,37.95 C10.6181427,37.95 10.2892723,38.3419901 9.93597391,38.6572179 C9.57230553,38.9816982 8.95647303,39.0022268 8.75727751,39.600175 C8.63389015,39.9705611 8.28579892,40.5321468 8.28579892,41.0146108 C8.28579892,41.1215758 8.04566394,41.8660703 8.05005962,41.957568 Z" id="Oval-3-Copy-7" fill="#567173"></path>
                <path d="M1.15003753,31.2725806 C1.1714554,31.7184017 1.13045038,31.8619984 1.29842462,32.1629032 C1.47048676,32.471131 1.69922419,32.9569596 2.1887472,33.0532258 C2.32433433,33.0798894 3.08435675,33.35 3.22745688,33.35 C3.59211656,33.35 4.16449979,33.2178328 4.41455377,33.0532258 C4.81126944,32.7920735 5.10605212,32.3911523 5.30487635,31.866129 C5.40319198,31.6065128 5.45326333,31.3456154 5.45326333,31.05 C5.45326333,30.7622398 5.54319791,30.3121908 5.45326333,30.0854839 C5.26416009,29.6087926 4.75371165,29.4534559 4.26616656,29.1951613 C3.96204561,29.0340422 3.59271016,28.75 3.22745688,28.75 C2.76652829,28.75 2.55951943,28.9967398 2.33713428,29.1951613 C2.10822167,29.3994068 1.72058329,29.4123286 1.59519883,29.7887097 C1.51753213,30.0218508 1.29842463,30.3753432 1.29842463,30.6790323 C1.29842463,30.7463619 1.14727065,31.2149871 1.15003753,31.2725806 Z" id="Oval-3-Copy-8" fill="#567173"></path>
                <path d="M4.96825918e-05,18.28964 C0.0284047644,18.8798617 -0.0258817036,19.0699691 0.196499092,19.4683364 C0.42429185,19.8763986 0.727116908,20.5195862 1.37519555,20.6470329 C1.55469911,20.6823328 2.56089142,21.0399317 2.75034142,21.0399317 C3.2331137,21.0399317 3.99089084,20.8649558 4.32193685,20.6470329 C4.847148,20.3012938 5.23741027,19.770515 5.50063331,19.0754376 C5.63079319,18.7317322 5.69708257,18.3863305 5.69708257,17.9949659 C5.69708257,17.6140006 5.81614679,17.0181816 5.69708257,16.7180447 C5.44672912,16.086954 4.77094735,15.881304 4.12548729,15.5393482 C3.72286211,15.326043 3.23389957,14.95 2.75034142,14.95 C2.14011888,14.95 1.86606023,15.2766584 1.57164493,15.5393482 C1.26858794,15.8097485 0.755394193,15.8268557 0.589397924,16.3251459 C0.486575125,16.6338009 0.196499104,17.101789 0.196499104,17.5038423 C0.196499104,17.5929799 -0.00361338095,18.2133919 4.96825918e-05,18.28964 Z" id="Oval-3-Copy-9" fill="#567173"></path>
            </g>
        </g>
    </g>
</svg>