<?xml version="1.0" encoding="UTF-8" standalone="no"?>
<svg width="50px" height="50px" viewBox="0 0 50 50" version="1.1" xmlns="http://www.w3.org/2000/svg" xmlns:xlink="http://www.w3.org/1999/xlink">
    <!-- Generator: Sketch 3.8.1 (29687) - http://www.bohemiancoding.com/sketch -->
    <title>particle5</title>
    <desc>Created with Sketch.</desc>
    <defs></defs>
    <g id="Page-1" stroke="none" stroke-width="1" fill="none" fill-rule="evenodd">
        <g id="particle5" fill="#5C6D65">
            <path d="M25.9464496,19.4805207 L18.4368319,3.71032343 L18.0196798,2.83430411 L19.7717184,2 L20.1888705,2.87601932 L27.6759091,18.5988005 L33.3802532,2.91185424 L33.7118366,2 L35.5355451,2.66316672 L35.2039617,3.57502096 L29.9558726,18.0072659 L45.5986273,12.0481212 L46.5053336,11.7027093 L47.1961575,13.5161219 L46.2894512,13.8615338 L29.2662613,20.3465585 L48.0611491,25.2495727 L49,25.4944904 L48.5101647,27.3721922 L47.5713138,27.1272746 L29.4910977,22.4106965 L39.5942892,43.6273985 L40.0114412,44.5034178 L38.2594026,45.3377219 L37.8422505,44.4617026 L27.9160699,23.6167233 L19.6796268,46.266942 L19.3480434,47.1787963 L17.5243349,46.5156295 L17.8559183,45.6037753 L26.5671369,21.6479241 L26.1415864,21.5369109 L5.53807199,29.3858687 L4.6313657,29.7312807 L3.94054187,27.9178681 L4.84724815,27.5724562 L22.9061352,20.6928802 L2.93885091,15.4840234 L2,15.2391057 L2.48983526,13.3614039 L3.42868617,13.6063216 L25.9464496,19.4805207 Z" id="Combined-Shape"></path>
        </g>
    </g>
</svg>